<?xml version="1.0" encoding="UTF-8"?>
<svg id="Layer_2" data-name="Layer 2" xmlns="http://www.w3.org/2000/svg" viewBox="0 0 308.7 102.6">
  <defs>
    <style>
      .cls-1 {
        fill: #fff;
      }

      .cls-2 {
        fill: #e01278;
      }
    </style>
  </defs>
  <g id="logo">
    <g>
      <path class="cls-1" d="M30.48,88.2h1.27c1.37,0,2.13,1.58,1.28,2.65h0c-1.1,1.39-3.31.29-2.87-1.42L52.77,1.23c.19-.72.84-1.23,1.59-1.23h10.24c1.07,0,1.86,1.02,1.58,2.05l-26,98.72c-.19.72-.84,1.22-1.58,1.22h-11.39M30.35,67.12L13.46,1.23c-.19-.72-.84-1.23-1.59-1.23H1.64C.56,0-.22,1.02.05,2.05l23.63,89.72"/>
      <path class="cls-1" d="M73.47,0h29.03c3.6,0,6.48.73,8.64,2.17,2.16,1.45,3.58,3.55,4.25,6.3.68,2.75.56,6.18-.34,10.27l-5.8,30c-.63,2.9-1.35,5.28-2.16,7.12-.81,1.85-1.8,3.35-2.97,4.5-1.17,1.15-2.61,2.02-4.32,2.62l-.94,39h-13.37l1.35-37.35h-12.69l-7.56,37.35h-13.64L73.47,0ZM93.59,50.17c.72-.25,1.35-.77,1.89-1.57.54-.8.9-1.85,1.08-3.15l5.27-26.25c.27-1.3.29-2.3.07-3-.23-.7-.65-1.28-1.28-1.73-.63-.45-1.48-.68-2.56-.68h-13.64l-7.56,36.75h14.04c1.08,0,1.98-.12,2.7-.38Z"/>
      <path class="cls-1" d="M114.11,100.35c-2.16-1.5-3.62-3.62-4.39-6.38-.76-2.75-.7-6.12.2-10.12L126.53,0h13.63l-16.6,82.8c-.18,1.3-.23,2.4-.13,3.3.09.9.47,1.55,1.15,1.95.67.4,1.55.6,2.63.6h9.58c1.17,0,2.18-.17,3.04-.52.85-.35,1.49-.98,1.89-1.88s.74-2.05,1.01-3.45L159.33,0h13.77l-17.15,85.65c-.81,4.1-1.98,7.38-3.51,9.83-1.53,2.45-3.44,4.25-5.74,5.4s-5.15,1.73-8.57,1.73h-15.79c-3.33,0-6.08-.75-8.23-2.25Z"/>
      <path class="cls-1" d="M180.79,0h19.98l-4.32,94.8h-7.02L222.78,0h20.52l-20.52,102h-12.69L229.4,6.15h2.56l-33.88,94.35h-12.29l3.78-94.35h2.7l-19.3,95.85h-12.69L180.79,0Z"/>
      <path class="cls-1" d="M251.67,0h40.77l-2.7,13.8h-27.13l-6.08,30.3h22.41l-2.97,13.65h-22.41l-6.08,30.45h27.13l-2.7,13.8h-40.77L251.67,0Z"/>
    </g>
    <circle class="cls-2" cx="297.2" cy="90.5" r="11.5"/>
  </g>
</svg>